<svg width="30" height="26" viewBox="0 0 30 26" fill="none" xmlns="http://www.w3.org/2000/svg">
<g id="Vector">
<path d="M22.9529 2.75564L22.9529 23.21C22.9523 23.8125 22.7126 24.3903 22.2865 24.8163C21.8605 25.2424 21.2827 25.4821 20.6802 25.4827L16.1348 25.4827C15.5322 25.4821 14.9545 25.2424 14.5284 24.8163C14.1023 24.3903 13.8627 23.8125 13.8621 23.21L13.8621 2.75564C13.8627 2.15306 14.1023 1.57534 14.5284 1.14926C14.9545 0.723172 15.5322 0.483533 16.1348 0.48293L20.6802 0.48293C21.2827 0.483533 21.8605 0.723172 22.2865 1.14926C22.7126 1.57534 22.9523 2.15306 22.9529 2.75564ZM16.1348 23.21L20.6802 23.21L20.6802 2.75564L16.1348 2.75564L16.1348 23.21ZM16.1348 2.75564L16.1348 23.21C16.1342 23.8125 15.8945 24.3902 15.4684 24.8163C15.0423 25.2424 14.4646 25.482 13.8621 25.4826L9.31664 25.4826C8.71407 25.482 8.13635 25.2424 7.71026 24.8163C7.28418 24.3902 7.04454 23.8125 7.04394 23.2099L7.04394 2.75561C7.04454 2.15304 7.28418 1.57532 7.71026 1.14923C8.13635 0.723148 8.71407 0.483513 9.31664 0.48291L13.862 0.48291C14.4646 0.483512 15.0423 0.723148 15.4684 1.14923C15.8945 1.57532 16.1342 2.15306 16.1348 2.75564ZM9.31664 23.2099L13.8621 23.21L13.8621 2.75564L9.31664 2.75561L9.31664 23.2099ZM9.31664 2.75561L9.31664 23.2099C9.31604 23.8125 9.0764 24.3902 8.65032 24.8163C8.22424 25.2424 7.64651 25.482 7.04394 25.4826L2.49853 25.4826C1.89596 25.482 1.31824 25.2424 0.892154 24.8163C0.46607 24.3902 0.226432 23.8125 0.22583 23.2099L0.225829 2.75561C0.226431 2.15304 0.466069 1.57532 0.892153 1.14923C1.31824 0.723148 1.89596 0.483513 2.49853 0.48291L7.04394 0.48291C7.64651 0.483513 8.22423 0.723148 8.65032 1.14923C9.0764 1.57532 9.31604 2.15304 9.31664 2.75561ZM2.49853 23.2099L7.04394 23.2099L7.04394 2.75561L2.49853 2.75561L2.49853 23.2099Z" fill="#CDCDCD"/>
<path d="M29.771 2.75589L29.771 23.2102C29.7704 23.8128 29.5307 24.3905 29.1046 24.8166C28.6786 25.2427 28.1008 25.4823 27.4983 25.4829L22.9529 25.4829C22.3503 25.4823 21.7726 25.2427 21.3465 24.8166C20.9204 24.3905 20.6808 23.8125 20.6802 23.21L20.6802 2.75564C20.6808 2.15306 20.9204 1.57559 21.3465 1.14951C21.7726 0.723424 22.3503 0.483787 22.9529 0.483184L27.4983 0.483184C28.1008 0.483786 28.6786 0.723424 29.1046 1.14951C29.5307 1.57559 29.7704 2.15331 29.771 2.75589ZM22.9529 23.21L27.4983 23.2102L27.4983 2.75589L22.9529 2.75564L22.9529 23.21Z" fill="#CDCDCD"/>
</g>
</svg>
